<?xml version="1.0" encoding="utf-8"?>
<!-- Generator: Adobe Illustrator 23.0.1, SVG Export Plug-In . SVG Version: 6.00 Build 0)  -->
<svg version="1.1" id="Layer_1" xmlns="http://www.w3.org/2000/svg" xmlns:xlink="http://www.w3.org/1999/xlink" x="0px" y="0px"
	 viewBox="0 0 260 111" style="enable-background:new 0 0 260 111;" xml:space="preserve">
<style type="text/css">
	.st0{fill:#0E67D0;}
	.st1{fill:#00DD2F;}
</style>
<g>
	<g>
		<path class="st0" d="M101.43,38.93c-0.07,5.48-1.99,10.01-5.68,13.8c-1.07,1.1-2.18,2.18-3.26,3.27
			c-0.88,0.89-0.87,0.97,0.03,1.89c1.35,1.38,2.79,2.69,4.04,4.16c4.89,5.75,6.23,12.28,3.6,19.35c-2.56,6.88-7.69,10.99-14.92,12.2
			c-6.17,1.03-11.71-0.7-16.16-5.07c-9.69-9.53-19.26-19.19-28.86-28.81c-1.74-1.74-1.74-3.81-0.01-5.55
			c9.6-9.62,19.12-19.33,28.86-28.81c5.55-5.4,12.35-6.81,19.65-4.21c7.3,2.61,11.4,8.07,12.57,15.72
			C101.4,37.6,101.39,38.36,101.43,38.93z M94.21,39.18c-0.06-0.75-0.05-1.51-0.2-2.24c-0.95-4.59-3.63-7.76-8.09-9.16
			c-4.48-1.41-8.63-0.49-11.99,2.82c-8.56,8.44-17.02,16.98-25.54,25.46c-0.67,0.67-0.65,1.11,0.01,1.77
			c8.54,8.51,17.04,17.05,25.59,25.55c4.54,4.51,12.02,4.46,16.61,0c4.83-4.7,4.87-12.26,0.05-17.2c-2.68-2.74-5.41-5.43-8.12-8.14
			c-1.09-1.1-1.09-1.1,0.03-2.22c2.71-2.71,5.43-5.41,8.12-8.14C92.98,45.32,94.22,42.51,94.21,39.18z"/>
		<path class="st1" d="M54.6,35.06c-0.29-0.53-0.54-0.94-0.75-1.36c-2.37-4.62-7.22-7.12-12.42-6.39c-5,0.7-9.01,4.53-9.96,9.56
			c-0.13,0.7-0.16,1.43-0.16,2.15c-0.01,11.99-0.02,23.98,0,35.96c0.01,5.53,3.85,10.25,9.25,11.46c5.44,1.22,11.1-1.51,13.45-6.48
			c0.16-0.34,0.35-0.67,0.58-1.1c0.32,0.26,0.56,0.41,0.76,0.61c1.26,1.24,2.48,2.52,3.76,3.74c0.62,0.58,0.67,1.1,0.2,1.79
			c-3.29,4.95-7.85,7.94-13.75,8.69c-10.42,1.33-19.95-6.07-21.28-16.45c-0.29-2.29-0.25-4.64-0.27-6.96
			c-0.04-3.7-0.01-7.4-0.01-11.09c0-6.22-0.01-12.45,0-18.67c0.01-3.58,0.5-7.06,2.26-10.25c3.32-5.99,8.34-9.53,15.17-10.15
			c7.42-0.67,13.25,2.3,17.58,8.3c0.98,1.36,0.95,1.38-0.2,2.53c-1.11,1.11-2.22,2.23-3.34,3.33C55.25,34.52,54.97,34.74,54.6,35.06
			z"/>
	</g>
	<g>
		<g>
			<path class="st0" d="M132.06,37.5c0-0.28-0.22-0.42-0.66-0.42h-3.95c-0.4,0-0.67,0.1-0.79,0.29l-8.47,11.37v-11
				c0-0.2-0.06-0.36-0.19-0.48c-0.13-0.12-0.3-0.18-0.5-0.18h-3.41c-0.2,0-0.37,0.06-0.5,0.19c-0.13,0.13-0.19,0.28-0.19,0.46v24.3
				c0,0.19,0.07,0.35,0.2,0.49c0.13,0.13,0.3,0.2,0.49,0.2h3.41c0.19,0,0.35-0.06,0.49-0.19c0.13-0.13,0.2-0.3,0.2-0.5V50.56
				l7.91,11.78c0.17,0.26,0.43,0.39,0.79,0.39h4.64c0.35,0,0.52-0.1,0.52-0.3c0-0.08-0.06-0.22-0.19-0.42l-8.91-12.5l8.84-11.44
				C131.98,37.82,132.06,37.63,132.06,37.5z"/>
			<path class="st0" d="M151.71,38.41c-0.68-0.55-1.5-0.94-2.46-1.18c-0.96-0.24-2.07-0.35-3.33-0.35h-2.38
				c-2.59,0-4.55,0.54-5.9,1.63c-1.34,1.09-2.02,2.99-2.02,5.73v17.8c0,0.2,0.06,0.37,0.19,0.5c0.13,0.13,0.28,0.19,0.46,0.19h3.48
				c0.18,0,0.33-0.06,0.46-0.19c0.13-0.13,0.19-0.3,0.19-0.5V52.9h8.64v9.13c0,0.19,0.06,0.35,0.19,0.49
				c0.12,0.13,0.27,0.2,0.44,0.2h3.49c0.18,0,0.33-0.06,0.46-0.19c0.13-0.13,0.19-0.3,0.19-0.5v-17.8c0-1.44-0.18-2.63-0.55-3.58
				C152.91,39.71,152.39,38.96,151.71,38.41z M149.05,48.87h-8.64v-4.64c0-0.8,0.09-1.43,0.28-1.9c0.19-0.47,0.5-0.8,0.95-0.99
				c0.45-0.19,1.08-0.29,1.89-0.29h2.38c0.83,0,1.47,0.1,1.92,0.3c0.44,0.2,0.76,0.53,0.94,0.99c0.19,0.46,0.28,1.09,0.28,1.89
				V48.87z"/>
			<path class="st0" d="M175.39,37.17c-0.11-0.08-0.24-0.13-0.39-0.13h-3.91c-0.24,0-0.45,0.19-0.64,0.56l-4.78,10.16L160.9,37.6
				c-0.18-0.37-0.39-0.56-0.62-0.56h-3.93c-0.15,0-0.28,0.04-0.39,0.13c-0.11,0.08-0.17,0.19-0.17,0.33c0,0.09,0.03,0.2,0.1,0.34
				l7.37,14.7v9.5c0,0.19,0.06,0.35,0.17,0.49c0.11,0.13,0.26,0.2,0.44,0.2h3.56c0.18,0,0.33-0.06,0.46-0.19
				c0.13-0.13,0.19-0.3,0.19-0.5v-9.5l7.37-14.7c0.07-0.13,0.1-0.25,0.1-0.34C175.56,37.36,175.5,37.26,175.39,37.17z"/>
			<path class="st0" d="M193.62,38.41c-0.68-0.55-1.5-0.94-2.46-1.18c-0.96-0.24-2.07-0.35-3.33-0.35h-2.38
				c-2.59,0-4.55,0.54-5.9,1.63c-1.34,1.09-2.02,2.99-2.02,5.73v17.8c0,0.2,0.06,0.37,0.19,0.5c0.13,0.13,0.28,0.19,0.46,0.19h3.48
				c0.18,0,0.33-0.06,0.46-0.19c0.13-0.13,0.19-0.3,0.19-0.5V52.9h8.64v9.13c0,0.19,0.06,0.35,0.19,0.49
				c0.12,0.13,0.27,0.2,0.44,0.2h3.49c0.18,0,0.33-0.06,0.46-0.19c0.13-0.13,0.19-0.3,0.19-0.5v-17.8c0-1.44-0.18-2.63-0.55-3.58
				C194.83,39.71,194.3,38.96,193.62,38.41z M190.96,48.87h-8.64v-4.64c0-0.8,0.09-1.43,0.28-1.9c0.19-0.47,0.5-0.8,0.95-0.99
				c0.45-0.19,1.08-0.29,1.89-0.29h2.38c0.83,0,1.47,0.1,1.92,0.3c0.44,0.2,0.76,0.53,0.94,0.99c0.19,0.46,0.28,1.09,0.28,1.89
				V48.87z"/>
			<path class="st0" d="M220.15,37.23c-0.12-0.12-0.28-0.19-0.47-0.19h-2.97c-0.19,0-0.35,0.06-0.47,0.19
				c-0.12,0.12-0.19,0.28-0.19,0.47v18.17c0,0.21-0.06,0.32-0.19,0.32c-0.11,0-0.2-0.09-0.27-0.27l-8.05-17.77
				c-0.19-0.43-0.4-0.72-0.62-0.88c-0.22-0.16-0.52-0.24-0.9-0.24h-3.73c-0.38,0-0.71,0.13-0.98,0.4c-0.27,0.27-0.4,0.6-0.4,0.98
				v23.61c0,0.19,0.07,0.35,0.2,0.49c0.13,0.13,0.3,0.2,0.49,0.2h2.94c0.18,0,0.33-0.06,0.46-0.19c0.13-0.13,0.19-0.3,0.19-0.5
				V44.65c0-0.18,0.06-0.27,0.17-0.27c0.11,0,0.21,0.09,0.3,0.27l7.68,16.82c0.25,0.54,0.53,0.88,0.84,1.03
				c0.31,0.15,0.74,0.22,1.27,0.22h3.49c0.38,0,0.71-0.13,0.98-0.4c0.27-0.27,0.4-0.6,0.4-0.98V37.7
				C220.34,37.51,220.28,37.35,220.15,37.23z"/>
		</g>
		<g>
			<path class="st1" d="M116.07,74.38c0,0.37-0.13,0.68-0.39,0.93c-0.26,0.25-0.68,0.38-1.26,0.38c-0.41,0-0.78-0.04-1.11-0.11
				c-0.08-0.02-0.12-0.06-0.12-0.13v-0.45c0-0.03,0.01-0.06,0.04-0.08c0.02-0.02,0.05-0.04,0.08-0.04h0.01
				c0.11,0.01,0.24,0.02,0.38,0.03c0.14,0.01,0.28,0.02,0.4,0.02c0.13,0.01,0.24,0.01,0.32,0.01c0.27,0,0.45-0.05,0.56-0.14
				c0.11-0.09,0.16-0.24,0.16-0.43c0-0.12-0.04-0.22-0.11-0.3c-0.07-0.08-0.21-0.19-0.42-0.31l-0.83-0.5
				c-0.19-0.11-0.34-0.23-0.45-0.35c-0.11-0.12-0.19-0.24-0.23-0.37c-0.04-0.13-0.06-0.27-0.06-0.42c0-0.24,0.05-0.45,0.15-0.63
				c0.1-0.17,0.27-0.31,0.51-0.41c0.23-0.1,0.54-0.15,0.91-0.15c0.2,0,0.42,0.01,0.67,0.04c0.25,0.02,0.43,0.05,0.53,0.08
				c0.08,0.01,0.11,0.05,0.11,0.12v0.46c0,0.03-0.01,0.06-0.03,0.08c-0.02,0.02-0.05,0.03-0.08,0.03h-0.01
				c-0.46-0.04-0.87-0.06-1.23-0.06c-0.44,0-0.66,0.15-0.66,0.44c0,0.1,0.04,0.19,0.11,0.27c0.07,0.08,0.21,0.17,0.41,0.29
				l0.75,0.42c0.33,0.18,0.56,0.37,0.68,0.57C116,73.88,116.07,74.12,116.07,74.38z"/>
			<path class="st1" d="M119.57,75.53c0,0.06-0.04,0.1-0.12,0.11c-0.08,0.01-0.19,0.02-0.33,0.03c-0.14,0.01-0.28,0.02-0.41,0.02
				c-0.16,0-0.3-0.02-0.42-0.05c-0.12-0.03-0.22-0.08-0.3-0.15c-0.08-0.07-0.15-0.17-0.19-0.29s-0.07-0.27-0.07-0.45V71.6
				c0-0.07,0.04-0.11,0.13-0.13l0.58-0.1h0.02c0.03,0,0.05,0.01,0.07,0.04c0.02,0.03,0.03,0.06,0.03,0.09v0.62h0.88
				c0.04,0,0.07,0.01,0.09,0.03c0.02,0.02,0.03,0.05,0.03,0.09v0.37c0,0.03-0.01,0.06-0.04,0.09c-0.02,0.02-0.05,0.04-0.09,0.04
				h-0.88v2.02c0,0.12,0.03,0.2,0.09,0.24c0.06,0.04,0.16,0.06,0.3,0.06h0.5c0.09,0,0.13,0.03,0.13,0.09V75.53z"/>
			<path class="st1" d="M124.02,74.13c0,0.3-0.06,0.57-0.17,0.81c-0.11,0.24-0.28,0.42-0.51,0.56c-0.23,0.13-0.5,0.2-0.81,0.2
				c-0.32,0-0.59-0.07-0.82-0.2c-0.22-0.13-0.39-0.32-0.51-0.56c-0.12-0.24-0.17-0.51-0.17-0.81v-0.51c0-0.3,0.06-0.57,0.17-0.81
				c0.12-0.24,0.29-0.42,0.51-0.56c0.22-0.13,0.5-0.2,0.82-0.2c0.32,0,0.59,0.07,0.81,0.2c0.23,0.13,0.4,0.32,0.51,0.56
				c0.11,0.24,0.17,0.51,0.17,0.81V74.13z M123.2,74.13v-0.51c0-0.26-0.06-0.47-0.17-0.62c-0.12-0.15-0.28-0.23-0.5-0.23
				c-0.22,0-0.38,0.08-0.5,0.23c-0.11,0.15-0.17,0.36-0.17,0.62v0.51c0,0.26,0.06,0.47,0.17,0.62c0.12,0.15,0.28,0.23,0.5,0.23
				c0.21,0,0.38-0.08,0.5-0.23S123.2,74.39,123.2,74.13z"/>
			<path class="st1" d="M127.46,72.65c0,0.08-0.06,0.11-0.18,0.11c-0.11,0-0.22,0-0.33,0.01c-0.11,0.01-0.21,0.02-0.29,0.03v2.71
				c0,0.03-0.01,0.07-0.03,0.09c-0.02,0.03-0.05,0.04-0.08,0.04h-0.58c-0.03,0-0.06-0.01-0.09-0.04c-0.03-0.03-0.04-0.06-0.04-0.09
				v-3.08c0-0.09,0.06-0.15,0.17-0.19c0.19-0.06,0.38-0.11,0.58-0.14c0.2-0.03,0.43-0.04,0.69-0.04c0.12,0,0.18,0.03,0.18,0.1V72.65
				z"/>
			<path class="st1" d="M131.89,74.01c0,0.11-0.04,0.16-0.13,0.16h-2.04v0.02c0,0.22,0.06,0.41,0.17,0.56
				c0.11,0.16,0.31,0.23,0.58,0.23c0.36,0,0.74-0.02,1.15-0.06h0.02c0.08,0,0.11,0.03,0.11,0.09v0.41c0,0.06-0.01,0.09-0.03,0.11
				c-0.02,0.02-0.05,0.04-0.11,0.05c-0.2,0.04-0.39,0.06-0.57,0.08c-0.18,0.02-0.4,0.02-0.65,0.02c-0.17,0-0.34-0.03-0.52-0.08
				c-0.17-0.05-0.34-0.14-0.49-0.26c-0.15-0.12-0.28-0.28-0.37-0.49c-0.09-0.21-0.14-0.45-0.14-0.75v-0.46
				c0-0.49,0.13-0.88,0.4-1.16c0.26-0.28,0.63-0.43,1.11-0.43c0.31,0,0.58,0.07,0.81,0.2c0.23,0.13,0.4,0.32,0.51,0.56
				c0.12,0.24,0.17,0.52,0.17,0.83V74.01z M131.06,73.58v-0.02c0-0.16-0.03-0.29-0.08-0.41c-0.06-0.12-0.13-0.21-0.23-0.27
				c-0.1-0.06-0.21-0.09-0.34-0.09c-0.2,0-0.36,0.07-0.49,0.2c-0.12,0.14-0.19,0.33-0.19,0.57v0.02H131.06z"/>
			<path class="st1" d="M139.19,71.56c0,0.03-0.01,0.06-0.04,0.09c-0.03,0.03-0.06,0.04-0.09,0.04h-1.28
				c-0.18,0-0.31,0.04-0.39,0.12c-0.07,0.08-0.11,0.22-0.11,0.42v0.68h1.7c0.04,0,0.07,0.01,0.09,0.03
				c0.02,0.02,0.03,0.05,0.03,0.09v0.45c0,0.04-0.01,0.07-0.04,0.09c-0.02,0.02-0.05,0.04-0.09,0.04h-1.7v1.92
				c0,0.04-0.01,0.07-0.04,0.09c-0.02,0.02-0.05,0.04-0.09,0.04h-0.61c-0.03,0-0.06-0.01-0.09-0.04c-0.02-0.02-0.04-0.05-0.04-0.09
				v-3.3c0-0.34,0.06-0.6,0.18-0.79c0.12-0.19,0.29-0.32,0.5-0.39c0.21-0.07,0.47-0.11,0.77-0.11c0.33,0,0.58,0.01,0.73,0.02
				c0.15,0.02,0.31,0.04,0.46,0.07c0.05,0.01,0.08,0.02,0.1,0.04c0.02,0.02,0.03,0.05,0.03,0.09V71.56z"/>
			<path class="st1" d="M143.68,74.13c0,0.3-0.06,0.57-0.17,0.81c-0.11,0.24-0.28,0.42-0.51,0.56s-0.5,0.2-0.81,0.2
				c-0.32,0-0.59-0.07-0.82-0.2c-0.22-0.13-0.39-0.32-0.51-0.56c-0.12-0.24-0.17-0.51-0.17-0.81v-0.51c0-0.3,0.06-0.57,0.17-0.81
				c0.12-0.24,0.29-0.42,0.51-0.56c0.22-0.13,0.5-0.2,0.82-0.2c0.32,0,0.59,0.07,0.81,0.2s0.4,0.32,0.51,0.56
				c0.11,0.24,0.17,0.51,0.17,0.81V74.13z M142.85,74.13v-0.51c0-0.26-0.06-0.47-0.17-0.62c-0.12-0.15-0.28-0.23-0.5-0.23
				c-0.22,0-0.38,0.08-0.5,0.23c-0.11,0.15-0.17,0.36-0.17,0.62v0.51c0,0.26,0.06,0.47,0.17,0.62c0.12,0.15,0.28,0.23,0.5,0.23
				c0.21,0,0.38-0.08,0.5-0.23C142.79,74.6,142.85,74.39,142.85,74.13z"/>
			<path class="st1" d="M147.11,72.65c0,0.08-0.06,0.11-0.18,0.11c-0.11,0-0.22,0-0.33,0.01c-0.11,0.01-0.21,0.02-0.29,0.03v2.71
				c0,0.03-0.01,0.07-0.03,0.09c-0.02,0.03-0.05,0.04-0.08,0.04h-0.58c-0.03,0-0.06-0.01-0.09-0.04c-0.03-0.03-0.04-0.06-0.04-0.09
				v-3.08c0-0.09,0.06-0.15,0.17-0.19c0.19-0.06,0.38-0.11,0.58-0.14c0.2-0.03,0.43-0.04,0.69-0.04c0.12,0,0.18,0.03,0.18,0.1V72.65
				z"/>
			<path class="st1" d="M151.54,74.01c0,0.11-0.04,0.16-0.13,0.16h-2.04v0.02c0,0.22,0.06,0.41,0.17,0.56
				c0.11,0.16,0.31,0.23,0.58,0.23c0.36,0,0.74-0.02,1.15-0.06h0.02c0.08,0,0.11,0.03,0.11,0.09v0.41c0,0.06-0.01,0.09-0.03,0.11
				c-0.02,0.02-0.05,0.04-0.11,0.05c-0.2,0.04-0.39,0.06-0.57,0.08c-0.18,0.02-0.4,0.02-0.65,0.02c-0.17,0-0.34-0.03-0.52-0.08
				c-0.17-0.05-0.34-0.14-0.49-0.26c-0.15-0.12-0.28-0.28-0.37-0.49c-0.09-0.21-0.14-0.45-0.14-0.75v-0.46
				c0-0.49,0.13-0.88,0.4-1.16c0.26-0.28,0.63-0.43,1.11-0.43c0.31,0,0.58,0.07,0.81,0.2c0.23,0.13,0.4,0.32,0.51,0.56
				c0.12,0.24,0.17,0.52,0.17,0.83V74.01z M150.71,73.58v-0.02c0-0.16-0.03-0.29-0.08-0.41c-0.06-0.12-0.13-0.21-0.23-0.27
				c-0.1-0.06-0.21-0.09-0.34-0.09c-0.2,0-0.36,0.07-0.49,0.2c-0.12,0.14-0.19,0.33-0.19,0.57v0.02H150.71z"/>
			<path class="st1" d="M160.95,75.52c0,0.04-0.01,0.07-0.04,0.09c-0.02,0.02-0.05,0.04-0.08,0.04h-0.64
				c-0.03,0-0.06-0.01-0.08-0.04c-0.02-0.02-0.03-0.05-0.03-0.09V72.7c0-0.29-0.03-0.5-0.1-0.64c-0.06-0.14-0.17-0.23-0.33-0.28
				c-0.15-0.04-0.39-0.07-0.7-0.07v3.81c0,0.04-0.01,0.07-0.04,0.09c-0.02,0.02-0.05,0.04-0.08,0.04h-0.63
				c-0.03,0-0.06-0.01-0.08-0.04c-0.02-0.02-0.04-0.05-0.04-0.09v-3.81c-0.24,0-0.44,0.01-0.57,0.03c-0.14,0.02-0.25,0.07-0.33,0.13
				c-0.08,0.07-0.14,0.16-0.17,0.29c-0.04,0.13-0.05,0.3-0.05,0.52v2.82c0,0.04-0.01,0.07-0.03,0.09c-0.02,0.02-0.05,0.03-0.08,0.03
				h-0.64c-0.03,0-0.06-0.01-0.08-0.04c-0.02-0.02-0.04-0.05-0.04-0.09V72.7c0-0.39,0.05-0.7,0.14-0.93
				c0.09-0.23,0.24-0.41,0.43-0.53c0.2-0.12,0.44-0.2,0.73-0.24c0.29-0.04,0.67-0.06,1.13-0.06c0.47,0,0.84,0.02,1.13,0.06
				c0.29,0.04,0.53,0.12,0.73,0.24c0.19,0.12,0.34,0.3,0.43,0.53c0.09,0.23,0.14,0.54,0.14,0.93V75.52z"/>
			<path class="st1" d="M165.81,74.01c0,0.11-0.04,0.16-0.13,0.16h-2.04v0.02c0,0.22,0.06,0.41,0.17,0.56
				c0.11,0.16,0.31,0.23,0.58,0.23c0.36,0,0.74-0.02,1.15-0.06h0.02c0.08,0,0.11,0.03,0.11,0.09v0.41c0,0.06-0.01,0.09-0.03,0.11
				c-0.02,0.02-0.05,0.04-0.11,0.05c-0.2,0.04-0.39,0.06-0.57,0.08c-0.18,0.02-0.4,0.02-0.65,0.02c-0.17,0-0.34-0.03-0.52-0.08
				c-0.17-0.05-0.34-0.14-0.49-0.26c-0.15-0.12-0.28-0.28-0.37-0.49c-0.09-0.21-0.14-0.45-0.14-0.75v-0.46
				c0-0.49,0.13-0.88,0.4-1.16s0.63-0.43,1.11-0.43c0.31,0,0.58,0.07,0.81,0.2c0.23,0.13,0.4,0.32,0.51,0.56
				c0.12,0.24,0.17,0.52,0.17,0.83V74.01z M164.98,73.58v-0.02c0-0.16-0.03-0.29-0.08-0.41c-0.06-0.12-0.13-0.21-0.23-0.27
				c-0.1-0.06-0.21-0.09-0.34-0.09c-0.2,0-0.36,0.07-0.49,0.2c-0.12,0.14-0.19,0.33-0.19,0.57v0.02H164.98z"/>
			<path class="st1" d="M170.42,75.36c0,0.05-0.01,0.08-0.03,0.11c-0.02,0.02-0.07,0.04-0.14,0.06c-0.21,0.05-0.42,0.09-0.64,0.12
				c-0.21,0.03-0.42,0.04-0.62,0.04c-0.49,0-0.86-0.14-1.12-0.41c-0.25-0.28-0.38-0.66-0.38-1.16v-0.48c0-0.33,0.06-0.61,0.17-0.84
				c0.11-0.24,0.28-0.42,0.5-0.54c0.22-0.12,0.5-0.19,0.83-0.19c0.18,0,0.38,0.01,0.6,0.04V71c0-0.03,0.01-0.06,0.04-0.09
				c0.03-0.03,0.06-0.04,0.09-0.04h0.58c0.03,0,0.06,0.01,0.09,0.04c0.03,0.03,0.04,0.06,0.04,0.09V75.36z M169.59,74.97v-2.19
				c-0.2-0.03-0.4-0.04-0.6-0.04c-0.25,0-0.43,0.08-0.53,0.23c-0.1,0.16-0.15,0.38-0.15,0.66v0.48c0,0.28,0.05,0.5,0.15,0.66
				c0.1,0.16,0.27,0.24,0.53,0.24C169.25,75.02,169.45,75,169.59,74.97z"/>
			<path class="st1" d="M173.2,71.51c0,0.03-0.01,0.06-0.04,0.09c-0.03,0.02-0.06,0.04-0.09,0.04h-0.61c-0.03,0-0.06-0.01-0.09-0.04
				c-0.03-0.02-0.04-0.05-0.04-0.09v-0.55c0-0.03,0.01-0.06,0.04-0.09c0.03-0.03,0.06-0.04,0.09-0.04h0.61
				c0.03,0,0.06,0.01,0.09,0.04c0.03,0.03,0.04,0.06,0.04,0.09V71.51z M173.18,75.51c0,0.03-0.01,0.06-0.04,0.09
				c-0.03,0.03-0.05,0.04-0.09,0.04h-0.58c-0.03,0-0.06-0.01-0.09-0.04c-0.03-0.03-0.04-0.06-0.04-0.09v-3.28
				c0-0.03,0.01-0.06,0.04-0.09c0.02-0.02,0.05-0.04,0.09-0.04h0.58c0.03,0,0.06,0.01,0.09,0.04c0.02,0.02,0.04,0.05,0.04,0.09
				V75.51z"/>
			<path class="st1" d="M177.35,75.45c0,0.05-0.01,0.09-0.03,0.11c-0.02,0.02-0.05,0.04-0.1,0.05c-0.21,0.05-0.48,0.08-0.81,0.08
				c-0.27,0-0.52-0.06-0.74-0.17c-0.22-0.11-0.39-0.28-0.51-0.51c-0.12-0.23-0.18-0.51-0.18-0.84v-0.58c0-0.33,0.06-0.61,0.18-0.84
				c0.12-0.23,0.29-0.4,0.51-0.51c0.22-0.11,0.46-0.17,0.74-0.17c0.19,0,0.34,0.01,0.48,0.02c0.13,0.02,0.24,0.03,0.33,0.06
				c0.05,0.01,0.09,0.03,0.1,0.05s0.03,0.06,0.03,0.11v0.41c0,0.06-0.04,0.09-0.11,0.09h-0.02c-0.23-0.03-0.5-0.04-0.81-0.04
				c-0.17,0-0.31,0.06-0.43,0.19c-0.12,0.12-0.17,0.34-0.17,0.64v0.58c0,0.3,0.06,0.51,0.17,0.63c0.12,0.13,0.26,0.19,0.43,0.19
				c0.19,0,0.35,0,0.47-0.01c0.12-0.01,0.24-0.02,0.34-0.03h0.02c0.08,0,0.11,0.03,0.11,0.09V75.45z"/>
			<path class="st1" d="M181.67,75.4c0,0.04-0.01,0.08-0.02,0.09c-0.01,0.02-0.03,0.03-0.07,0.04c-0.18,0.05-0.36,0.09-0.54,0.11
				c-0.18,0.03-0.39,0.04-0.64,0.04c-0.51,0-0.89-0.08-1.12-0.25c-0.24-0.17-0.35-0.43-0.35-0.81v-0.03c0-0.19,0.03-0.34,0.08-0.47
				c0.05-0.13,0.14-0.24,0.25-0.33c0.12-0.09,0.27-0.16,0.45-0.2c0.19-0.04,0.42-0.07,0.69-0.07h0.44v-0.28
				c0-0.2-0.04-0.33-0.13-0.4c-0.09-0.07-0.23-0.11-0.42-0.11c-0.41,0-0.75,0.02-1.02,0.05c-0.05,0-0.09-0.01-0.11-0.02
				c-0.02-0.02-0.04-0.04-0.04-0.08v-0.4c0-0.07,0.04-0.11,0.12-0.13c0.33-0.07,0.68-0.1,1.05-0.1c0.3,0,0.55,0.04,0.75,0.13
				c0.2,0.09,0.36,0.22,0.47,0.4c0.11,0.18,0.16,0.4,0.16,0.66V75.4z M180.84,75.02v-0.93h-0.44c-0.19,0-0.33,0.02-0.42,0.05
				c-0.09,0.03-0.15,0.09-0.18,0.16s-0.04,0.17-0.04,0.3v0.04c0,0.12,0.02,0.21,0.06,0.27c0.04,0.06,0.1,0.11,0.19,0.13
				c0.09,0.03,0.22,0.04,0.39,0.04C180.58,75.07,180.72,75.05,180.84,75.02z"/>
			<path class="st1" d="M184.44,75.51c0,0.03-0.01,0.07-0.03,0.09c-0.02,0.03-0.05,0.04-0.09,0.04h-0.58
				c-0.03,0-0.06-0.01-0.09-0.04c-0.03-0.03-0.04-0.06-0.04-0.09V71c0-0.03,0.01-0.06,0.04-0.09c0.03-0.03,0.06-0.04,0.09-0.04h0.58
				c0.03,0,0.06,0.01,0.08,0.04c0.02,0.03,0.04,0.05,0.04,0.09V75.51z"/>
			<path class="st1" d="M191.93,74.38c0,0.37-0.13,0.68-0.39,0.93c-0.26,0.25-0.68,0.38-1.26,0.38c-0.41,0-0.78-0.04-1.11-0.11
				c-0.08-0.02-0.12-0.06-0.12-0.13v-0.45c0-0.03,0.01-0.06,0.04-0.08c0.02-0.02,0.05-0.04,0.08-0.04h0.01
				c0.11,0.01,0.24,0.02,0.38,0.03c0.14,0.01,0.28,0.02,0.4,0.02c0.13,0.01,0.24,0.01,0.32,0.01c0.27,0,0.45-0.05,0.56-0.14
				c0.11-0.09,0.16-0.24,0.16-0.43c0-0.12-0.04-0.22-0.11-0.3c-0.07-0.08-0.21-0.19-0.42-0.31l-0.83-0.5
				c-0.19-0.11-0.34-0.23-0.45-0.35c-0.11-0.12-0.19-0.24-0.23-0.37c-0.04-0.13-0.06-0.27-0.06-0.42c0-0.24,0.05-0.45,0.15-0.63
				c0.1-0.17,0.27-0.31,0.51-0.41c0.23-0.1,0.54-0.15,0.91-0.15c0.2,0,0.42,0.01,0.68,0.04c0.25,0.02,0.43,0.05,0.53,0.08
				c0.08,0.01,0.11,0.05,0.11,0.12v0.46c0,0.03-0.01,0.06-0.03,0.08c-0.02,0.02-0.05,0.03-0.08,0.03h-0.01
				c-0.46-0.04-0.87-0.06-1.23-0.06c-0.44,0-0.66,0.15-0.66,0.44c0,0.1,0.04,0.19,0.11,0.27c0.07,0.08,0.21,0.17,0.41,0.29
				l0.75,0.42c0.33,0.18,0.56,0.37,0.68,0.57C191.87,73.88,191.93,74.12,191.93,74.38z"/>
			<path class="st1" d="M196.58,74.18c0,0.41-0.09,0.73-0.26,0.96c-0.17,0.23-0.36,0.38-0.58,0.45c-0.21,0.07-0.41,0.11-0.6,0.11
				h-0.04c-0.19,0-0.38-0.04-0.6-0.11c-0.21-0.07-0.4-0.22-0.58-0.45c-0.17-0.23-0.26-0.55-0.26-0.96v-1.94
				c0-0.03,0.01-0.07,0.03-0.09c0.02-0.03,0.05-0.04,0.09-0.04h0.59c0.03,0,0.06,0.01,0.09,0.04c0.02,0.03,0.03,0.06,0.03,0.09v1.94
				c0,0.2,0.02,0.37,0.07,0.49c0.05,0.12,0.12,0.2,0.2,0.25c0.09,0.05,0.2,0.07,0.33,0.07h0.04c0.13,0,0.24-0.02,0.33-0.07
				c0.09-0.05,0.15-0.13,0.2-0.25c0.05-0.12,0.07-0.28,0.07-0.49v-1.94c0-0.03,0.01-0.07,0.03-0.09c0.02-0.03,0.05-0.04,0.09-0.04
				h0.59c0.03,0,0.06,0.01,0.09,0.04c0.02,0.03,0.03,0.06,0.03,0.09V74.18z"/>
			<path class="st1" d="M201.39,74.12c0,0.33-0.06,0.61-0.17,0.84c-0.11,0.24-0.28,0.42-0.5,0.54c-0.22,0.12-0.5,0.19-0.83,0.19
				c-0.19,0-0.39-0.01-0.6-0.04v1.11c0,0.03-0.01,0.06-0.04,0.09c-0.02,0.02-0.05,0.04-0.09,0.04h-0.58c-0.03,0-0.06-0.01-0.09-0.04
				c-0.03-0.03-0.04-0.06-0.04-0.09V72.4c0-0.05,0.01-0.08,0.03-0.11c0.02-0.02,0.07-0.04,0.14-0.06c0.42-0.11,0.84-0.16,1.26-0.16
				c0.33,0,0.61,0.06,0.83,0.19c0.22,0.12,0.39,0.31,0.5,0.54c0.11,0.24,0.17,0.52,0.17,0.84V74.12z M200.56,74.12v-0.48
				c0-0.29-0.05-0.51-0.15-0.66c-0.1-0.16-0.27-0.23-0.53-0.23c-0.13,0-0.25,0-0.34,0.01c-0.1,0.01-0.19,0.02-0.26,0.03v2.19
				c0.21,0.03,0.41,0.04,0.6,0.04c0.25,0,0.43-0.08,0.53-0.24C200.51,74.62,200.56,74.4,200.56,74.12z"/>
			<path class="st1" d="M206.11,74.12c0,0.33-0.06,0.61-0.17,0.84c-0.11,0.24-0.28,0.42-0.5,0.54c-0.22,0.12-0.5,0.19-0.83,0.19
				c-0.19,0-0.39-0.01-0.6-0.04v1.11c0,0.03-0.01,0.06-0.04,0.09c-0.02,0.02-0.05,0.04-0.09,0.04h-0.58c-0.03,0-0.06-0.01-0.09-0.04
				c-0.03-0.03-0.04-0.06-0.04-0.09V72.4c0-0.05,0.01-0.08,0.03-0.11c0.02-0.02,0.07-0.04,0.14-0.06c0.42-0.11,0.84-0.16,1.26-0.16
				c0.33,0,0.61,0.06,0.83,0.19c0.22,0.12,0.39,0.31,0.5,0.54c0.11,0.24,0.17,0.52,0.17,0.84V74.12z M205.28,74.12v-0.48
				c0-0.29-0.05-0.51-0.15-0.66c-0.1-0.16-0.27-0.23-0.53-0.23c-0.13,0-0.25,0-0.34,0.01c-0.1,0.01-0.19,0.02-0.26,0.03v2.19
				c0.21,0.03,0.41,0.04,0.6,0.04c0.25,0,0.43-0.08,0.53-0.24C205.23,74.62,205.28,74.4,205.28,74.12z"/>
			<path class="st1" d="M208.75,75.51c0,0.03-0.01,0.07-0.03,0.09c-0.02,0.03-0.05,0.04-0.09,0.04h-0.58
				c-0.03,0-0.06-0.01-0.09-0.04c-0.03-0.03-0.04-0.06-0.04-0.09V71c0-0.03,0.01-0.06,0.04-0.09c0.03-0.03,0.06-0.04,0.09-0.04h0.58
				c0.03,0,0.06,0.01,0.08,0.04c0.02,0.03,0.04,0.05,0.04,0.09V75.51z"/>
			<path class="st1" d="M211.56,71.51c0,0.03-0.01,0.06-0.04,0.09c-0.03,0.02-0.06,0.04-0.09,0.04h-0.61
				c-0.03,0-0.06-0.01-0.09-0.04c-0.03-0.02-0.04-0.05-0.04-0.09v-0.55c0-0.03,0.01-0.06,0.04-0.09c0.03-0.03,0.06-0.04,0.09-0.04
				h0.61c0.03,0,0.06,0.01,0.09,0.04c0.03,0.03,0.04,0.06,0.04,0.09V71.51z M211.54,75.51c0,0.03-0.01,0.06-0.04,0.09
				c-0.03,0.03-0.05,0.04-0.09,0.04h-0.58c-0.03,0-0.06-0.01-0.09-0.04c-0.03-0.03-0.04-0.06-0.04-0.09v-3.28
				c0-0.03,0.01-0.06,0.04-0.09c0.02-0.02,0.05-0.04,0.09-0.04h0.58c0.03,0,0.06,0.01,0.09,0.04c0.02,0.02,0.04,0.05,0.04,0.09
				V75.51z"/>
			<path class="st1" d="M216.36,74.01c0,0.11-0.04,0.16-0.13,0.16h-2.04v0.02c0,0.22,0.06,0.41,0.17,0.56s0.31,0.23,0.58,0.23
				c0.36,0,0.74-0.02,1.15-0.06h0.02c0.08,0,0.11,0.03,0.11,0.09v0.41c0,0.06-0.01,0.09-0.03,0.11c-0.02,0.02-0.05,0.04-0.11,0.05
				c-0.2,0.04-0.39,0.06-0.57,0.08c-0.18,0.02-0.4,0.02-0.65,0.02c-0.17,0-0.34-0.03-0.52-0.08c-0.17-0.05-0.34-0.14-0.49-0.26
				c-0.15-0.12-0.28-0.28-0.37-0.49c-0.09-0.21-0.14-0.45-0.14-0.75v-0.46c0-0.49,0.13-0.88,0.4-1.16s0.63-0.43,1.11-0.43
				c0.31,0,0.58,0.07,0.81,0.2c0.23,0.13,0.4,0.32,0.51,0.56c0.12,0.24,0.17,0.52,0.17,0.83V74.01z M215.53,73.58v-0.02
				c0-0.16-0.03-0.29-0.08-0.41c-0.06-0.12-0.13-0.21-0.23-0.27c-0.1-0.06-0.21-0.09-0.34-0.09c-0.2,0-0.36,0.07-0.49,0.2
				c-0.12,0.14-0.19,0.33-0.19,0.57v0.02H215.53z"/>
			<path class="st1" d="M220.54,74.72c0,0.18-0.05,0.35-0.14,0.5s-0.23,0.26-0.42,0.35s-0.41,0.13-0.67,0.13
				c-0.14,0-0.32-0.01-0.54-0.03c-0.22-0.02-0.41-0.05-0.59-0.1c-0.08-0.02-0.12-0.07-0.12-0.14v-0.38c0-0.02,0.01-0.05,0.03-0.07
				c0.02-0.02,0.05-0.03,0.08-0.03h0.02c0.37,0.04,0.72,0.07,1.05,0.07c0.18,0,0.29-0.03,0.36-0.08c0.06-0.05,0.09-0.13,0.09-0.22
				c0-0.06-0.02-0.12-0.06-0.16c-0.04-0.05-0.11-0.1-0.21-0.16l-0.86-0.53c-0.16-0.1-0.29-0.22-0.38-0.37
				c-0.09-0.15-0.14-0.31-0.14-0.49c0-0.63,0.4-0.94,1.19-0.94c0.24,0,0.45,0.01,0.61,0.03c0.16,0.02,0.33,0.05,0.51,0.09
				c0.08,0.02,0.11,0.07,0.11,0.14v0.36c0,0.08-0.04,0.12-0.11,0.12h-0.02c-0.36-0.05-0.7-0.07-1.03-0.07
				c-0.15,0-0.26,0.02-0.33,0.06c-0.07,0.04-0.1,0.11-0.1,0.21c0,0.05,0.02,0.08,0.05,0.11c0.03,0.03,0.1,0.08,0.2,0.14l0.82,0.5
				c0.17,0.1,0.29,0.21,0.38,0.31c0.09,0.1,0.15,0.21,0.17,0.31C220.53,74.49,220.54,74.6,220.54,74.72z"/>
		</g>
	</g>
</g>
</svg>
